<mxfile host="app.diagrams.net" modified="2024-08-18T17:50:32.189Z" agent="Mozilla/5.0 (Windows NT 10.0; Win64; x64) AppleWebKit/537.36 (KHTML, like Gecko) Chrome/127.0.0.0 Safari/537.36" etag="Q9acLtIJnw9aLyEaygKk" version="24.6.4" type="device">
  <diagram name="Page-1" id="gzKsPUMaKoOEzTeIRSN4">
    <mxGraphModel dx="2266" dy="821" grid="1" gridSize="10" guides="1" tooltips="1" connect="1" arrows="1" fold="1" page="1" pageScale="1" pageWidth="850" pageHeight="1100" math="0" shadow="0">
      <root>
        <mxCell id="0" />
        <mxCell id="1" parent="0" />
        <mxCell id="chyZpjM_UGkQUkRi_q1q-1" value="" style="image;html=1;image=img/lib/clip_art/people/Doctor_Woman_128x128.png" parent="1" vertex="1">
          <mxGeometry x="60" y="300" width="80" height="80" as="geometry" />
        </mxCell>
        <mxCell id="chyZpjM_UGkQUkRi_q1q-2" value="" style="endArrow=classic;startArrow=classic;html=1;rounded=0;strokeColor=#FFFFFF;" parent="1" edge="1">
          <mxGeometry width="50" height="50" relative="1" as="geometry">
            <mxPoint x="230" y="339.5" as="sourcePoint" />
            <mxPoint x="150" y="339.5" as="targetPoint" />
          </mxGeometry>
        </mxCell>
        <mxCell id="chyZpjM_UGkQUkRi_q1q-8" style="edgeStyle=orthogonalEdgeStyle;rounded=0;orthogonalLoop=1;jettySize=auto;html=1;dashed=1;strokeColor=#FFFFFF;" parent="1" source="chyZpjM_UGkQUkRi_q1q-4" target="chyZpjM_UGkQUkRi_q1q-5" edge="1">
          <mxGeometry relative="1" as="geometry" />
        </mxCell>
        <mxCell id="chyZpjM_UGkQUkRi_q1q-4" value="" style="sketch=0;points=[[0,0,0],[0.25,0,0],[0.5,0,0],[0.75,0,0],[1,0,0],[0,1,0],[0.25,1,0],[0.5,1,0],[0.75,1,0],[1,1,0],[0,0.25,0],[0,0.5,0],[0,0.75,0],[1,0.25,0],[1,0.5,0],[1,0.75,0]];outlineConnect=0;fontColor=#232F3E;fillColor=#ED7100;strokeColor=#ffffff;dashed=0;verticalLabelPosition=bottom;verticalAlign=top;align=center;html=1;fontSize=12;fontStyle=0;aspect=fixed;shape=mxgraph.aws4.resourceIcon;resIcon=mxgraph.aws4.lambda;" parent="1" vertex="1">
          <mxGeometry x="260" y="302" width="78" height="78" as="geometry" />
        </mxCell>
        <mxCell id="chyZpjM_UGkQUkRi_q1q-5" value="" style="sketch=0;points=[[0,0,0],[0.25,0,0],[0.5,0,0],[0.75,0,0],[1,0,0],[0,1,0],[0.25,1,0],[0.5,1,0],[0.75,1,0],[1,1,0],[0,0.25,0],[0,0.5,0],[0,0.75,0],[1,0.25,0],[1,0.5,0],[1,0.75,0]];outlineConnect=0;fontColor=#232F3E;fillColor=#01A88D;strokeColor=#ffffff;dashed=0;verticalLabelPosition=bottom;verticalAlign=top;align=center;html=1;fontSize=12;fontStyle=0;aspect=fixed;shape=mxgraph.aws4.resourceIcon;resIcon=mxgraph.aws4.bedrock;" parent="1" vertex="1">
          <mxGeometry x="410" y="302" width="78" height="78" as="geometry" />
        </mxCell>
        <mxCell id="chyZpjM_UGkQUkRi_q1q-10" style="edgeStyle=orthogonalEdgeStyle;rounded=0;orthogonalLoop=1;jettySize=auto;html=1;entryX=-0.039;entryY=0.516;entryDx=0;entryDy=0;entryPerimeter=0;strokeColor=#FFFFFF;" parent="1" source="chyZpjM_UGkQUkRi_q1q-5" edge="1">
          <mxGeometry relative="1" as="geometry">
            <mxPoint x="557.387" y="341.0239999999999" as="targetPoint" />
          </mxGeometry>
        </mxCell>
        <mxCell id="chyZpjM_UGkQUkRi_q1q-41" style="edgeStyle=orthogonalEdgeStyle;rounded=0;orthogonalLoop=1;jettySize=auto;html=1;exitX=1;exitY=0.5;exitDx=0;exitDy=0;entryX=0;entryY=0.5;entryDx=0;entryDy=0;strokeColor=#FFFFFF;" parent="1" source="chyZpjM_UGkQUkRi_q1q-11" target="chyZpjM_UGkQUkRi_q1q-39" edge="1">
          <mxGeometry relative="1" as="geometry" />
        </mxCell>
        <mxCell id="chyZpjM_UGkQUkRi_q1q-11" value="" style="swimlane;startSize=0;strokeColor=#FFFFFF;" parent="1" vertex="1">
          <mxGeometry x="80" y="480" width="200" height="200" as="geometry" />
        </mxCell>
        <mxCell id="chyZpjM_UGkQUkRi_q1q-12" value="A       B       C" style="shape=table;startSize=30;container=1;collapsible=0;childLayout=tableLayout;strokeColor=#001DBC;fontSize=16;fillColor=#0050ef;fontColor=#ffffff;" parent="chyZpjM_UGkQUkRi_q1q-11" vertex="1">
          <mxGeometry x="35" y="80" width="130" height="90" as="geometry" />
        </mxCell>
        <mxCell id="chyZpjM_UGkQUkRi_q1q-13" value="" style="shape=tableRow;horizontal=0;startSize=0;swimlaneHead=0;swimlaneBody=0;strokeColor=inherit;top=0;left=0;bottom=0;right=0;collapsible=0;dropTarget=0;fillColor=none;points=[[0,0.5],[1,0.5]];portConstraint=eastwest;fontSize=16;" parent="chyZpjM_UGkQUkRi_q1q-12" vertex="1">
          <mxGeometry y="30" width="130" height="20" as="geometry" />
        </mxCell>
        <mxCell id="chyZpjM_UGkQUkRi_q1q-14" value="" style="shape=partialRectangle;html=1;whiteSpace=wrap;connectable=0;strokeColor=inherit;overflow=hidden;fillColor=none;top=0;left=0;bottom=0;right=0;pointerEvents=1;fontSize=16;" parent="chyZpjM_UGkQUkRi_q1q-13" vertex="1">
          <mxGeometry width="43" height="20" as="geometry">
            <mxRectangle width="43" height="20" as="alternateBounds" />
          </mxGeometry>
        </mxCell>
        <mxCell id="chyZpjM_UGkQUkRi_q1q-15" value="" style="shape=partialRectangle;html=1;whiteSpace=wrap;connectable=0;strokeColor=inherit;overflow=hidden;fillColor=none;top=0;left=0;bottom=0;right=0;pointerEvents=1;fontSize=16;" parent="chyZpjM_UGkQUkRi_q1q-13" vertex="1">
          <mxGeometry x="43" width="44" height="20" as="geometry">
            <mxRectangle width="44" height="20" as="alternateBounds" />
          </mxGeometry>
        </mxCell>
        <mxCell id="chyZpjM_UGkQUkRi_q1q-16" value="" style="shape=partialRectangle;html=1;whiteSpace=wrap;connectable=0;strokeColor=inherit;overflow=hidden;fillColor=none;top=0;left=0;bottom=0;right=0;pointerEvents=1;fontSize=16;" parent="chyZpjM_UGkQUkRi_q1q-13" vertex="1">
          <mxGeometry x="87" width="43" height="20" as="geometry">
            <mxRectangle width="43" height="20" as="alternateBounds" />
          </mxGeometry>
        </mxCell>
        <mxCell id="chyZpjM_UGkQUkRi_q1q-17" value="" style="shape=tableRow;horizontal=0;startSize=0;swimlaneHead=0;swimlaneBody=0;strokeColor=inherit;top=0;left=0;bottom=0;right=0;collapsible=0;dropTarget=0;fillColor=none;points=[[0,0.5],[1,0.5]];portConstraint=eastwest;fontSize=16;" parent="chyZpjM_UGkQUkRi_q1q-12" vertex="1">
          <mxGeometry y="50" width="130" height="20" as="geometry" />
        </mxCell>
        <mxCell id="chyZpjM_UGkQUkRi_q1q-18" value="" style="shape=partialRectangle;html=1;whiteSpace=wrap;connectable=0;strokeColor=inherit;overflow=hidden;fillColor=none;top=0;left=0;bottom=0;right=0;pointerEvents=1;fontSize=16;" parent="chyZpjM_UGkQUkRi_q1q-17" vertex="1">
          <mxGeometry width="43" height="20" as="geometry">
            <mxRectangle width="43" height="20" as="alternateBounds" />
          </mxGeometry>
        </mxCell>
        <mxCell id="chyZpjM_UGkQUkRi_q1q-19" value="" style="shape=partialRectangle;html=1;whiteSpace=wrap;connectable=0;strokeColor=inherit;overflow=hidden;fillColor=none;top=0;left=0;bottom=0;right=0;pointerEvents=1;fontSize=16;" parent="chyZpjM_UGkQUkRi_q1q-17" vertex="1">
          <mxGeometry x="43" width="44" height="20" as="geometry">
            <mxRectangle width="44" height="20" as="alternateBounds" />
          </mxGeometry>
        </mxCell>
        <mxCell id="chyZpjM_UGkQUkRi_q1q-20" value="" style="shape=partialRectangle;html=1;whiteSpace=wrap;connectable=0;strokeColor=inherit;overflow=hidden;fillColor=none;top=0;left=0;bottom=0;right=0;pointerEvents=1;fontSize=16;" parent="chyZpjM_UGkQUkRi_q1q-17" vertex="1">
          <mxGeometry x="87" width="43" height="20" as="geometry">
            <mxRectangle width="43" height="20" as="alternateBounds" />
          </mxGeometry>
        </mxCell>
        <mxCell id="chyZpjM_UGkQUkRi_q1q-21" value="" style="shape=tableRow;horizontal=0;startSize=0;swimlaneHead=0;swimlaneBody=0;strokeColor=inherit;top=0;left=0;bottom=0;right=0;collapsible=0;dropTarget=0;fillColor=none;points=[[0,0.5],[1,0.5]];portConstraint=eastwest;fontSize=16;" parent="chyZpjM_UGkQUkRi_q1q-12" vertex="1">
          <mxGeometry y="70" width="130" height="20" as="geometry" />
        </mxCell>
        <mxCell id="chyZpjM_UGkQUkRi_q1q-22" value="" style="shape=partialRectangle;html=1;whiteSpace=wrap;connectable=0;strokeColor=inherit;overflow=hidden;fillColor=none;top=0;left=0;bottom=0;right=0;pointerEvents=1;fontSize=16;" parent="chyZpjM_UGkQUkRi_q1q-21" vertex="1">
          <mxGeometry width="43" height="20" as="geometry">
            <mxRectangle width="43" height="20" as="alternateBounds" />
          </mxGeometry>
        </mxCell>
        <mxCell id="chyZpjM_UGkQUkRi_q1q-23" value="" style="shape=partialRectangle;html=1;whiteSpace=wrap;connectable=0;strokeColor=inherit;overflow=hidden;fillColor=none;top=0;left=0;bottom=0;right=0;pointerEvents=1;fontSize=16;" parent="chyZpjM_UGkQUkRi_q1q-21" vertex="1">
          <mxGeometry x="43" width="44" height="20" as="geometry">
            <mxRectangle width="44" height="20" as="alternateBounds" />
          </mxGeometry>
        </mxCell>
        <mxCell id="chyZpjM_UGkQUkRi_q1q-24" value="" style="shape=partialRectangle;html=1;whiteSpace=wrap;connectable=0;strokeColor=inherit;overflow=hidden;fillColor=none;top=0;left=0;bottom=0;right=0;pointerEvents=1;fontSize=16;" parent="chyZpjM_UGkQUkRi_q1q-21" vertex="1">
          <mxGeometry x="87" width="43" height="20" as="geometry">
            <mxRectangle width="43" height="20" as="alternateBounds" />
          </mxGeometry>
        </mxCell>
        <mxCell id="chyZpjM_UGkQUkRi_q1q-53" value="&lt;font color=&quot;#ffffff&quot;&gt;Stage One&lt;/font&gt;&lt;div&gt;&lt;font color=&quot;#ffffff&quot;&gt;Check if each condition is a valid condition by the Tables&lt;/font&gt;&lt;/div&gt;" style="text;html=1;align=center;verticalAlign=middle;whiteSpace=wrap;rounded=0;" parent="chyZpjM_UGkQUkRi_q1q-11" vertex="1">
          <mxGeometry x="30" width="140" height="80" as="geometry" />
        </mxCell>
        <mxCell id="chyZpjM_UGkQUkRi_q1q-39" value="" style="swimlane;startSize=0;strokeColor=#FFFFFF;" parent="1" vertex="1">
          <mxGeometry x="380" y="480" width="200" height="200" as="geometry" />
        </mxCell>
        <mxCell id="chyZpjM_UGkQUkRi_q1q-42" value="" style="sketch=0;points=[[0,0,0],[0.25,0,0],[0.5,0,0],[0.75,0,0],[1,0,0],[0,1,0],[0.25,1,0],[0.5,1,0],[0.75,1,0],[1,1,0],[0,0.25,0],[0,0.5,0],[0,0.75,0],[1,0.25,0],[1,0.5,0],[1,0.75,0]];outlineConnect=0;fontColor=#232F3E;fillColor=#C925D1;strokeColor=#ffffff;dashed=0;verticalLabelPosition=bottom;verticalAlign=top;align=center;html=1;fontSize=12;fontStyle=0;aspect=fixed;shape=mxgraph.aws4.resourceIcon;resIcon=mxgraph.aws4.neptune;" parent="chyZpjM_UGkQUkRi_q1q-39" vertex="1">
          <mxGeometry x="61" y="81" width="78" height="78" as="geometry" />
        </mxCell>
        <mxCell id="chyZpjM_UGkQUkRi_q1q-57" value="&lt;font color=&quot;#ffffff&quot;&gt;Stage Two&lt;/font&gt;&lt;div&gt;&lt;font color=&quot;#ffffff&quot;&gt;Check if each condition is valid by position or needs reordering&lt;/font&gt;&lt;/div&gt;" style="text;html=1;align=center;verticalAlign=middle;whiteSpace=wrap;rounded=0;" parent="chyZpjM_UGkQUkRi_q1q-39" vertex="1">
          <mxGeometry x="30" width="140" height="80" as="geometry" />
        </mxCell>
        <mxCell id="chyZpjM_UGkQUkRi_q1q-44" value="" style="sketch=0;points=[[0,0,0],[0.25,0,0],[0.5,0,0],[0.75,0,0],[1,0,0],[0,1,0],[0.25,1,0],[0.5,1,0],[0.75,1,0],[1,1,0],[0,0.25,0],[0,0.5,0],[0,0.75,0],[1,0.25,0],[1,0.5,0],[1,0.75,0]];outlineConnect=0;fontColor=#232F3E;fillColor=#01A88D;strokeColor=#ffffff;dashed=0;verticalLabelPosition=bottom;verticalAlign=top;align=center;html=1;fontSize=12;fontStyle=0;aspect=fixed;shape=mxgraph.aws4.resourceIcon;resIcon=mxgraph.aws4.bedrock;" parent="1" vertex="1">
          <mxGeometry x="650" y="541" width="78" height="78" as="geometry" />
        </mxCell>
        <mxCell id="chyZpjM_UGkQUkRi_q1q-45" style="edgeStyle=orthogonalEdgeStyle;rounded=0;orthogonalLoop=1;jettySize=auto;html=1;exitX=1;exitY=0.5;exitDx=0;exitDy=0;entryX=0;entryY=0.5;entryDx=0;entryDy=0;entryPerimeter=0;strokeColor=#FFFFFF;" parent="1" source="chyZpjM_UGkQUkRi_q1q-39" target="chyZpjM_UGkQUkRi_q1q-44" edge="1">
          <mxGeometry relative="1" as="geometry" />
        </mxCell>
        <mxCell id="chyZpjM_UGkQUkRi_q1q-46" style="edgeStyle=orthogonalEdgeStyle;rounded=0;orthogonalLoop=1;jettySize=auto;html=1;entryX=0.5;entryY=0;entryDx=0;entryDy=0;entryPerimeter=0;strokeColor=#FFFFFF;" parent="1" source="chyZpjM_UGkQUkRi_q1q-44" target="chyZpjM_UGkQUkRi_q1q-4" edge="1">
          <mxGeometry relative="1" as="geometry">
            <Array as="points">
              <mxPoint x="689" y="270" />
              <mxPoint x="299" y="270" />
            </Array>
          </mxGeometry>
        </mxCell>
        <mxCell id="chyZpjM_UGkQUkRi_q1q-48" style="edgeStyle=orthogonalEdgeStyle;rounded=0;orthogonalLoop=1;jettySize=auto;html=1;entryX=0;entryY=0.5;entryDx=0;entryDy=0;strokeColor=#FFFFFF;" parent="1" target="chyZpjM_UGkQUkRi_q1q-11" edge="1">
          <mxGeometry relative="1" as="geometry">
            <mxPoint x="599" y="420" as="sourcePoint" />
            <Array as="points">
              <mxPoint x="599" y="450" />
              <mxPoint x="50" y="450" />
              <mxPoint x="50" y="580" />
            </Array>
          </mxGeometry>
        </mxCell>
        <mxCell id="chyZpjM_UGkQUkRi_q1q-47" value="" style="sketch=0;points=[[0,0,0],[0.25,0,0],[0.5,0,0],[0.75,0,0],[1,0,0],[0,1,0],[0.25,1,0],[0.5,1,0],[0.75,1,0],[1,1,0],[0,0.25,0],[0,0.5,0],[0,0.75,0],[1,0.25,0],[1,0.5,0],[1,0.75,0]];outlineConnect=0;dashed=0;verticalLabelPosition=bottom;verticalAlign=top;align=center;html=1;fontSize=12;fontStyle=0;aspect=fixed;shape=mxgraph.aws4.resourceIcon;resIcon=mxgraph.aws4.sagemaker;fillColor=#FF99FF;" parent="1" vertex="1">
          <mxGeometry x="560" y="302" width="78" height="78" as="geometry" />
        </mxCell>
        <mxCell id="chyZpjM_UGkQUkRi_q1q-49" value="&lt;font color=&quot;#ffffff&quot;&gt;User Input Chain&lt;/font&gt;" style="text;html=1;align=center;verticalAlign=middle;whiteSpace=wrap;rounded=0;" parent="1" vertex="1">
          <mxGeometry x="70" y="390" width="60" height="30" as="geometry" />
        </mxCell>
        <mxCell id="chyZpjM_UGkQUkRi_q1q-50" value="&lt;font color=&quot;#ffffff&quot;&gt;Lambda Handler&lt;/font&gt;" style="text;html=1;align=center;verticalAlign=middle;whiteSpace=wrap;rounded=0;" parent="1" vertex="1">
          <mxGeometry x="269" y="390" width="60" height="30" as="geometry" />
        </mxCell>
        <mxCell id="chyZpjM_UGkQUkRi_q1q-51" value="&lt;font color=&quot;#ffffff&quot;&gt;Condition Inputs&lt;/font&gt;" style="text;html=1;align=center;verticalAlign=middle;whiteSpace=wrap;rounded=0;" parent="1" vertex="1">
          <mxGeometry x="419" y="390" width="60" height="30" as="geometry" />
        </mxCell>
        <mxCell id="chyZpjM_UGkQUkRi_q1q-52" value="&lt;font color=&quot;#ffffff&quot;&gt;Map to Embeddings&lt;/font&gt;" style="text;html=1;align=center;verticalAlign=middle;whiteSpace=wrap;rounded=0;" parent="1" vertex="1">
          <mxGeometry x="569" y="390" width="60" height="30" as="geometry" />
        </mxCell>
        <mxCell id="chyZpjM_UGkQUkRi_q1q-58" value="&lt;font color=&quot;#ffffff&quot;&gt;Convey Response&lt;/font&gt;" style="text;html=1;align=center;verticalAlign=middle;whiteSpace=wrap;rounded=0;" parent="1" vertex="1">
          <mxGeometry x="659" y="630" width="60" height="30" as="geometry" />
        </mxCell>
        <mxCell id="i70ekyp5JTDkSvmU_Re4-1" value="" style="sketch=0;points=[[0,0,0],[0.25,0,0],[0.5,0,0],[0.75,0,0],[1,0,0],[0,1,0],[0.25,1,0],[0.5,1,0],[0.75,1,0],[1,1,0],[0,0.25,0],[0,0.5,0],[0,0.75,0],[1,0.25,0],[1,0.5,0],[1,0.75,0]];outlineConnect=0;fontColor=#232F3E;fillColor=#ED7100;strokeColor=#ffffff;dashed=0;verticalLabelPosition=bottom;verticalAlign=top;align=center;html=1;fontSize=12;fontStyle=0;aspect=fixed;shape=mxgraph.aws4.resourceIcon;resIcon=mxgraph.aws4.ec2;" vertex="1" parent="1">
          <mxGeometry x="560" y="302" width="78" height="78" as="geometry" />
        </mxCell>
      </root>
    </mxGraphModel>
  </diagram>
</mxfile>
